<?xml version="1.0" encoding="iso-8859-1"?>
<!-- Generator: Adobe Illustrator 21.0.0, SVG Export Plug-In . SVG Version: 6.00 Build 0)  -->
<svg xmlns="http://www.w3.org/2000/svg" xmlns:xlink="http://www.w3.org/1999/xlink" version="1.1" id="Capa_1" x="0px" y="0px" viewBox="0 0 511.198 511.198" style="enable-background:new 0 0 511.198 511.198;" xml:space="preserve" width="32" height="32">
<g>
	<path fill="#fff"  d="M492.334,144.901c-1.515-3.854-5.867-5.751-9.724-4.237c-3.855,1.515-5.752,5.869-4.237,9.724   c14.194,36.114,19.525,79.209,15.847,128.087c-5.405,71.806-26.449,131.566-62.548,177.619c-2.899,3.7-6.213,7.003-9.861,9.854   l33.488-94.581c10.583-28.189,17.251-59.75,19.814-93.808c5.577-74.077-11.743-132.933-51.479-174.935   c-33.808-35.736-77.727-52.038-108.616-59.421c-32.37-7.737-57.061-7.585-59.411-7.548c-2.339-0.036-27.038-0.188-59.411,7.548   c-55.965,13.376-89.956,39.697-108.617,59.421c-39.735,42.001-57.056,100.858-51.478,174.935   c2.564,34.076,9.237,65.652,19.829,93.853l29.112,82.221l4.361,12.316c-3.648-2.851-6.962-6.155-9.862-9.855   C43.441,410.04,22.397,350.28,16.992,278.474C10.516,192.44,31.73,125.678,80.045,80.044c3.012-2.844,3.147-7.591,0.303-10.603   c-2.843-3.012-7.591-3.147-10.602-0.303C17.984,118.028-4.797,188.838,2.035,279.6c5.632,74.82,27.736,137.315,65.698,185.746   c7.819,9.977,18.032,17.662,29.675,22.386c6.4,13.047,19.275,21.633,33.956,22.276l26.985,1.183   c0.967,0.043,1.975-0.11,2.884-0.441l19.466-7.056c18.834-6.827,28.678-27.856,21.943-46.878l-43.377-122.51   c-3.288-9.286-9.972-16.702-18.819-20.882c-8.759-4.137-18.594-4.599-27.692-1.3l-19.467,7.057   c-0.938,0.34-1.826,0.885-2.557,1.563l-27.522,24.987c-6.221-21.453-10.297-44.671-12.151-69.299   c-5.241-69.634,10.685-124.614,47.336-163.413c31.161-32.987,72.033-48.181,100.834-55.119c31.564-7.604,55.991-7.255,56.232-7.247   c0.098,0.002,0.197,0.002,0.295,0c0.98-0.017,96.97-1.158,156.984,62.279c36.71,38.804,52.663,93.813,47.418,163.5   c-1.853,24.629-5.931,47.847-12.151,69.3l-27.522-24.988c-0.732-0.678-1.62-1.221-2.557-1.563l-19.467-7.057   c-9.099-3.299-18.935-2.838-27.692,1.3c-8.848,4.181-15.531,11.597-18.819,20.882l-7.587,21.428   c-1.382,3.905,0.662,8.191,4.567,9.573c3.9,1.384,8.189-0.662,9.573-4.566l7.587-21.428c1.942-5.488,5.88-9.866,11.087-12.326   c5.113-2.417,10.857-2.688,16.173-0.76l12.467,4.519l-57.828,163.327l-12.362-4.481c-11.115-4.03-16.909-16.486-12.914-27.768   l25.782-72.817c1.382-3.905-0.662-8.191-4.567-9.573c-3.899-1.384-8.19,0.661-9.573,4.566l-25.782,72.817   c-6.734,19.021,3.109,40.05,21.943,46.877l19.466,7.056c0.907,0.331,1.918,0.485,2.884,0.441l26.985-1.183   c14.681-0.643,27.556-9.23,33.956-22.277c11.643-4.725,21.855-12.409,29.674-22.385c37.963-48.432,60.067-110.926,65.699-185.746   C513.028,228.453,507.361,183.133,492.334,144.901z M117.865,326.225c5.316-1.926,11.059-1.656,16.173,0.761   c5.207,2.46,9.145,6.837,11.087,12.326v0l43.377,122.51c3.995,11.283-1.799,23.739-12.914,27.769l-12.362,4.481l-57.828-163.327   L117.865,326.225z M92.535,339.364l55.36,156.355l-15.875-0.696c-10.127-0.444-18.887-6.989-22.316-16.676l-41.415-116.97   L92.535,339.364z M379.192,495.023l-15.875,0.696l55.36-156.355l24.246,22.013l-41.415,116.971   C398.079,488.033,389.319,494.579,379.192,495.023z"/>
	<path fill="#fff"  d="M102.559,61.692c65.694-46.202,147.281-46.703,153.047-46.685c0.241,0.008-0.241,0.008,0,0   c3.775-0.016,39.544,0.146,81.579,12.753c25.797,7.737,49.021,18.585,69.027,32.242c24.84,16.956,44.793,38.347,59.307,63.579   c2.035,3.541,6.694,4.803,10.24,2.762c3.591-2.065,4.827-6.65,2.762-10.241c-28.09-48.836-75.631-84.4-137.485-102.847   C296.087-0.15,259.348-0.037,255.613,0.008C249.39-0.077,164.672-0.33,93.93,49.422c-3.389,2.383-4.203,7.061-1.82,10.449   C94.493,63.259,99.171,64.076,102.559,61.692z"/>
</g>
</svg>
